HIERARCHY
ROOT Hips
{
	OFFSET -14.64140 90.27770 -84.91600
	CHANNELS 6 Xposition Yposition Zposition Zrotation Xrotation Yrotation
	JOINT Spine
	{
		OFFSET 0.00000 13.20850 -1.60436
		CHANNELS 3 Zrotation Xrotation Yrotation
		JOINT Spine1
		{
			OFFSET 0.00000 8.61716 0.00000
			CHANNELS 3 Zrotation Xrotation Yrotation
			JOINT Spine2
			{
				OFFSET 0.00000 8.61717 0.00000
				CHANNELS 3 Zrotation Xrotation Yrotation
				JOINT Spine3
				{
					OFFSET 0.00000 8.61717 0.00000
					CHANNELS 3 Zrotation Xrotation Yrotation
					JOINT Neck
					{
						OFFSET 0.00000 11.07920 1.10792
						CHANNELS 3 Zrotation Xrotation Yrotation
						JOINT Neck1
						{
							OFFSET 0.00000 7.08032 0.00000
							CHANNELS 3 Zrotation Xrotation Yrotation
							JOINT Head
							{
								OFFSET 0.00000 7.08031 0.00000
								CHANNELS 3 Zrotation Xrotation Yrotation
								End site
								{
									OFFSET 0.00000 0.00000 0.00000
								}
							}
						}
					}
					JOINT RightShoulder
					{
						OFFSET -0.01000 7.91373 5.19711
						CHANNELS 3 Zrotation Xrotation Yrotation
						JOINT RightArm
						{
							OFFSET -18.41580 0.00000 0.00000
							CHANNELS 3 Zrotation Xrotation Yrotation
							JOINT RightForeArm
							{
								OFFSET -29.11090 0.00000 0.00000
								CHANNELS 3 Zrotation Xrotation Yrotation
								JOINT RightHand
								{
									OFFSET -24.65040 0.00000 0.00000
									CHANNELS 3 Zrotation Xrotation Yrotation
									JOINT RightHandThumb1
									{
										OFFSET -5.35114 -0.85590 3.97906
										CHANNELS 3 Zrotation Xrotation Yrotation
										JOINT RightHandThumb2
										{
											OFFSET -4.52789 0.00000 0.00000
											CHANNELS 3 Zrotation Xrotation Yrotation
											JOINT RightHandThumb3
											{
												OFFSET -2.46976 0.00000 0.00000
												CHANNELS 3 Zrotation Xrotation Yrotation
												End site
												{
													OFFSET 0.00000 0.00000 0.00000
												}
											}
										}
									}
									JOINT RightHandIndex1
									{
										OFFSET -14.26970 0.00000 2.88139
										CHANNELS 3 Zrotation Xrotation Yrotation
										JOINT RightHandIndex2
										{
											OFFSET -5.48836 0.00000 0.00000
											CHANNELS 3 Zrotation Xrotation Yrotation
											JOINT RightHandIndex3
											{
												OFFSET -3.01859 0.00000 0.00000
												CHANNELS 3 Zrotation Xrotation Yrotation
												End site
												{
													OFFSET 0.00000 0.00000 0.00000
												}
											}
										}
									}
									JOINT RightHandMiddle1
									{
										OFFSET -14.26970 0.00000 -0.09147
										CHANNELS 3 Zrotation Xrotation Yrotation
										JOINT RightHandMiddle2
										{
											OFFSET -6.17441 0.00000 0.00000
											CHANNELS 3 Zrotation Xrotation Yrotation
											JOINT RightHandMiddle3
											{
												OFFSET -3.56743 0.00000 0.00000
												CHANNELS 3 Zrotation Xrotation Yrotation
												End site
												{
													OFFSET 0.00000 0.00000 0.00000
												}
											}
										}
									}
									JOINT RightHandRing1
									{
										OFFSET -12.69180 0.00000 -3.06433
										CHANNELS 3 Zrotation Xrotation Yrotation
										JOINT RightHandRing2
										{
											OFFSET -5.62556 0.00000 0.00000
											CHANNELS 3 Zrotation Xrotation Yrotation
											JOINT RightHandRing3
											{
												OFFSET -3.56744 0.00000 0.00000
												CHANNELS 3 Zrotation Xrotation Yrotation
												End site
												{
													OFFSET 0.00000 0.00000 0.00000
												}
											}
										}
									}
									JOINT RightHandPinky1
									{
										OFFSET -11.11390 0.00000 -6.03719
										CHANNELS 3 Zrotation Xrotation Yrotation
										JOINT RightHandPinky2
										{
											OFFSET -4.52789 0.00000 0.00000
											CHANNELS 3 Zrotation Xrotation Yrotation
											JOINT RightHandPinky3
											{
												OFFSET -2.46976 0.00000 0.00000
												CHANNELS 3 Zrotation Xrotation Yrotation
												End site
												{
													OFFSET 0.00000 0.00000 0.00000
												}
											}
										}
									}
								}
							}
						}
					}
					JOINT LeftShoulder
					{
						OFFSET 0.01000 7.91373 5.19711
						CHANNELS 3 Zrotation Xrotation Yrotation
						JOINT LeftArm
						{
							OFFSET 18.41580 0.00000 0.00000
							CHANNELS 3 Zrotation Xrotation Yrotation
							JOINT LeftForeArm
							{
								OFFSET 29.11090 0.00000 0.00000
								CHANNELS 3 Zrotation Xrotation Yrotation
								JOINT LeftHand
								{
									OFFSET 24.65040 0.00000 0.00000
									CHANNELS 3 Zrotation Xrotation Yrotation
									JOINT LeftHandThumb1
									{
										OFFSET 5.35114 -0.85590 3.97906
										CHANNELS 3 Zrotation Xrotation Yrotation
										JOINT LeftHandThumb2
										{
											OFFSET 4.52789 0.00000 0.00000
											CHANNELS 3 Zrotation Xrotation Yrotation
											JOINT LeftHandThumb3
											{
												OFFSET 2.46977 0.00000 0.00000
												CHANNELS 3 Zrotation Xrotation Yrotation
												End site
												{
													OFFSET 0.00000 0.00000 0.00000
												}
											}
										}
									}
									JOINT LeftHandIndex1
									{
										OFFSET 14.26970 0.00000 2.88139
										CHANNELS 3 Zrotation Xrotation Yrotation
										JOINT LeftHandIndex2
										{
											OFFSET 5.48836 0.00000 0.00000
											CHANNELS 3 Zrotation Xrotation Yrotation
											JOINT LeftHandIndex3
											{
												OFFSET 3.01859 0.00000 0.00000
												CHANNELS 3 Zrotation Xrotation Yrotation
												End site
												{
													OFFSET 0.00000 0.00000 0.00000
												}
											}
										}
									}
									JOINT LeftHandMiddle1
									{
										OFFSET 14.26970 0.00000 -0.09147
										CHANNELS 3 Zrotation Xrotation Yrotation
										JOINT LeftHandMiddle2
										{
											OFFSET 6.17440 0.00000 0.00000
											CHANNELS 3 Zrotation Xrotation Yrotation
											JOINT LeftHandMiddle3
											{
												OFFSET 3.56744 0.00000 0.00000
												CHANNELS 3 Zrotation Xrotation Yrotation
												End site
												{
													OFFSET 0.00000 0.00000 0.00000
												}
											}
										}
									}
									JOINT LeftHandRing1
									{
										OFFSET 12.69180 0.00000 -3.06433
										CHANNELS 3 Zrotation Xrotation Yrotation
										JOINT LeftHandRing2
										{
											OFFSET 5.62556 0.00000 0.00000
											CHANNELS 3 Zrotation Xrotation Yrotation
											JOINT LeftHandRing3
											{
												OFFSET 3.56744 0.00000 0.00000
												CHANNELS 3 Zrotation Xrotation Yrotation
												End site
												{
													OFFSET 0.00000 0.00000 0.00000
												}
											}
										}
									}
									JOINT LeftHandPinky1
									{
										OFFSET 11.11390 0.00000 -6.03719
										CHANNELS 3 Zrotation Xrotation Yrotation
										JOINT LeftHandPinky2
										{
											OFFSET 4.52789 0.00000 0.00000
											CHANNELS 3 Zrotation Xrotation Yrotation
											JOINT LeftHandPinky3
											{
												OFFSET 2.46976 0.00000 0.00000
												CHANNELS 3 Zrotation Xrotation Yrotation
												End site
												{
													OFFSET 0.00000 0.00000 0.00000
												}
											}
										}
									}
								}
							}
						}
					}
					JOINT pCube4
					{
						OFFSET 0.00000 10.91090 1.10792
						CHANNELS 3 Zrotation Xrotation Yrotation
						End site
						{
							OFFSET 0.00000 0.00000 0.00000
						}
					}
				}
			}
		}
	}
	JOINT RightUpLeg
	{
		OFFSET -9.98441 0.00000 0.00000
		CHANNELS 3 Zrotation Xrotation Yrotation
		JOINT RightLeg
		{
			OFFSET 0.00000 -42.11790 0.00000
			CHANNELS 3 Zrotation Xrotation Yrotation
			JOINT RightFoot
			{
				OFFSET 0.00000 -45.00020 -0.00001
				CHANNELS 3 Zrotation Xrotation Yrotation
				JOINT RightForeFoot
				{
					OFFSET 0.00000 -3.74820 0.00000
					CHANNELS 3 Zrotation Xrotation Yrotation
					JOINT RightToeBase
					{
						OFFSET 0.00000 0.06325 14.43120
						CHANNELS 3 Zrotation Xrotation Yrotation
						End site
						{
							OFFSET 0.00000 0.00000 0.00000
						}
					}
				}
			}
		}
	}
	JOINT LeftUpLeg
	{
		OFFSET 9.98441 0.00000 0.00000
		CHANNELS 3 Zrotation Xrotation Yrotation
		JOINT LeftLeg
		{
			OFFSET 0.00000 -42.11800 0.00000
			CHANNELS 3 Zrotation Xrotation Yrotation
			JOINT LeftFoot
			{
				OFFSET 0.00000 -45.00070 0.00000
				CHANNELS 3 Zrotation Xrotation Yrotation
				JOINT LeftForeFoot
				{
					OFFSET 0.00000 -3.74824 0.00000
					CHANNELS 3 Zrotation Xrotation Yrotation
					JOINT LeftToeBase
					{
						OFFSET 0.00000 0.06325 14.43110
						CHANNELS 3 Zrotation Xrotation Yrotation
						End site
						{
							OFFSET 0.00000 0.00000 0.00000
						}
					}
				}
			}
		}
	}
}
MOTION
Frames: 4
Frame Time: 0.050000
-0.001443867115817707 0.021323773221644346 0.005058981416675486 0.03209069334093424 -0.021415559475340764 -0.023817910590650623 5.805494061358061 1.9840442444589566 -2.453872331477276 -0.7119826536907705 3.4923578528259114 0.3482967294411655 -0.5018086679258593 -1.5691666296186502 0.3312432410750905 -0.7424279952549415 -0.5464626740112052 -0.27366929782908306 -0.4181734934789189 15.075146126207214 -0.2090713066709662 0.4098693565671955 0.834043631125839 0.9973135720924591 0.47119938203657613 -14.923281297776823 0.06411427896053268 -12.892371233405067 4.126754095032523 -18.216755763689626 81.08027636330606 -6.654710253258844 22.05412928571754 34.03564309464125 12.272607459508086 95.0710659235366 14.476298261160272 -0.5750700933760959 -6.2733562593962 4.558287387268154 -0.14882809200045646 -1.5863135603229959 -0.020295935832024076 0.004726897250747423 -56.262333988655946 0.04646561376904713 -0.011895533092979199 -56.217131759828916 -38.77797787931004 0.013577649362242213 0.036646842283398456 -0.006120166741691742 0.009157579127683746 -0.0051417043302572855 0.0165682367851606 -0.03015774416072214 -0.023524964744583723 -36.68676298763641 0.026046808077113983 -0.02289672541780027 0.044492265599875916 0.03484903890538258 0.028825379395695145 0.028915649965296268 -0.03711627548438474 -0.02014854604718719 -19.783686254039925 0.01579246540866852 0.030058752152389755 0.03209814638810649 -0.03991723314511918 -0.03481764772533675 0.04134990592234434 0.02716716436423439 0.0017647638742540614 24.075687221039033 0.030006203694429242 -0.029255009980016528 28.832893856436115 -0.01131673986570196 -0.0029973954394992646 28.89647089343231 -0.011826341904341358 -0.01406286725080013 14.485940464076968 3.15171851558409 15.153145461243518 -71.7884918529922 6.652584598187669 -29.926475441889682 -39.68739737881364 16.774208260272328 -92.29377763842898 -24.65756142669042 -7.813461490664957 4.946895632230024 -0.46501644101114514 0.030822279995709308 -8.155187506982209 0.00031383857250123754 -0.00781698648174665 44.545325052810085 -0.013222313776449389 0.028321388035614698 44.572847828003255 12.453421182725709 0.012304005747053627 0.04274732656640631 0.02482729482448306 0.022478843995948024 0.0075093911176901725 -0.042428042511973386 -0.024078530587926045 0.04133853147803391 11.153840976580872 -0.0014400263970024022 -0.03262654252070924 -0.032896940908032364 0.047629389056231826 0.04544334679851664 0.03474458182744236 0.0062078059233134876 -0.01051475705747427 4.768401183422757 0.04719442891341228 -0.025773664462094562 -0.01756637927851461 0.04001448706057089 0.030108522004006794 -0.0070729481252533475 -0.04107870992386578 0.01568710021733463 -5.64496418459894 0.02178526670020242 -0.046085114747515504 -6.750022290520221 0.00955395617236194 -0.027623733627354624 -6.710571029380639 -0.009019894309188875 0.004608273572058634 0.0013822940340683927 0.012547486439300164 0.010502580661792348 8.061533579005442 3.5271948152971975 -19.19090116517013 0.04533848003932122 10.422551979898584 0.03479001210482412 -5.649149532140698 -15.674482521332934 3.1832182377722855 -0.010610483413340801 -0.015899279634891888 0.03500107257033728 0.0077037543839349526 4.686057394371941 0.0424945776191698 12.43135578827606 -8.197816518716763 6.9136574948313765 -0.04611049775374742 46.34254070428068 -0.008803934065951362 -4.3088273355088855 -14.764638009431081 -3.862813022863485 -0.03527816091151569 0.04553547303954254 0.04004263233279556 0.02363253153113371 -10.777668103388248 0.013042378447957427 
-0.017828095976782737 0.0324890668126376 0.009314130621586892 -0.016240892331172836 -0.04441208087788401 -0.009401870494832175 5.855067925167512 1.9959092167764563 -2.4450448515577095 -0.6740865163021167 3.4712070479384214 0.3224935054713919 -0.5014105626798369 -1.5013011809326249 0.3677995850731338 -0.7803408137010641 -0.5455333329265959 -0.2968672871708255 -0.41405247503963016 15.0698665421294 -0.2418833542286504 0.38381728857936726 0.812246118028111 1.0392248809746667 0.383430934098514 -14.98765625110768 0.11562538562257182 -12.94467556181683 4.171063786389981 -18.093098669114074 81.61371112423174 -5.2212219774961035 22.50602770401509 35.59699580604911 12.332242411676134 95.55835722080887 15.153299638245171 -0.6530679736502147 -6.990358421478532 4.5565141589412725 -0.10514079400915483 -1.579034809946431 -0.013065065731515115 0.023976779139011445 -56.233965941194604 0.023421430531179205 -0.0030576189066077756 -56.26274135336165 -38.790873869964834 0.04109523140923885 -0.0037116486709439095 0.021535296083946484 -0.022961967252494057 -0.022473979988236362 -0.04690825042711245 -0.022687373020587074 0.020949543643519104 -36.71396031755698 -0.0124579579967882 0.04201516347937843 0.003567820293820956 -0.014242750278307889 -0.026576480073799823 -0.0387358557915131 -0.03513138774159744 -0.04286467572248172 -19.75750935742722 0.012279454118210789 0.026902284874635696 0.043640022962520224 0.003984426175192671 0.03697605396415069 0.026060292784614643 -0.022027158009333622 0.020311894401188777 24.059332408946677 0.026061435516351702 -0.01622965558242014 28.887940503702247 0.032406539180719 -0.03185385387374322 28.83323498993289 -0.017364617980799503 0.0073002552438932965 14.583308461165451 3.1513330556277355 15.087561246378172 -72.03625015447304 7.747982380596934 -30.156351356968766 -40.41066121483934 16.69295890999669 -92.14432581986847 -25.79553528376414 -8.88381454437346 6.068110939451353 -0.4288368693329774 0.08200861583871227 -8.129120437869439 0.001882982000411776 0.015117581772290882 44.58771854121996 0.04817075891229262 -0.0035784436773419626 44.59561502315767 12.484450052893429 -0.034074137028095496 0.011008571181950696 -0.04048909684720731 0.006607354149980409 0.005209696114547311 -0.0033565453154634044 -0.021782126501902505 -0.029179245845505027 11.131664113753112 -0.015544758129815902 -0.00027802804252836634 -0.013747137386385243 -0.040352156868769584 0.004412559051958557 0.011684151650612368 0.025864123286989282 -0.0004673102050830521 4.811418929824612 0.010173607447962403 0.0477198135689412 -0.003839713005607948 0.04101321198872032 0.030658749068630534 0.044687310152370346 0.00449384155251505 0.011604529031038917 -5.585727437808729 -0.017521568812079547 -0.04516658163157877 -6.703424993839479 -0.009091276286822306 -0.049991103096162184 -6.745863419323673 0.03594779064688529 -0.027193643210250043 -0.028566164301019638 0.009950659682119683 0.01540176695169399 8.03518554444925 3.5128790311668 -19.186433833074116 0.018141932619469038 10.357259146140432 0.04947923186682815 -5.653640158664417 -15.664833542621752 3.171552928397102 0.016769205561797625 0.019547771850854035 0.019949242010437965 0.02449228714803115 4.7174554790777 0.0012057370878365197 12.42071110242374 -8.260634931104075 6.897546004528274 0.022852695935935027 46.3537140126783 -0.027899855052842648 -4.302990770590276 -14.71963398986087 -3.8379722650491552 -0.04227202081267335 -0.020389921072972654 0.030365562737110795 0.022037349808720075 -10.788613876708922 -0.028878362997116776 
-0.03222705565228978 0.03035403766896033 -0.028820737572723083 0.03395622092573537 -0.029150663963995654 -0.03092726717886651 5.85893417307517 1.9966992165883741 -2.441537389818063 -0.6861840705236014 3.4432865594656175 0.3501564500989874 -0.4997533766553301 -1.5229064691239835 0.30768717281401536 -0.7516195118542109 -0.49680760403927066 -0.2842765590366363 -0.383504693545042 15.057446070471462 -0.21953785926687572 0.4405893627437075 0.8101115205376245 0.998817887736265 0.4599621213135825 -14.976738150276695 0.07179439569570636 -12.777544474835022 4.1366875619769905 -18.02079629394364 82.00854991185702 -3.1035764675170756 22.326483631022533 36.6516105366443 12.142431292244648 95.7669006457824 15.7637234472708 -0.5574667749018591 -7.508478032127817 4.525914834136691 -0.11000688436115644 -1.5614184750589664 0.010532094243069261 -0.008382452911878155 -56.24276872709218 -0.03447781540440336 -0.003517329377976215 -56.23054869667326 -38.81356699586124 0.019287113801787634 -0.02609425042308331 -0.030271521917286024 0.03010526530545231 -0.004201590244872652 -0.020071166408530954 -0.010703950565054566 0.030863198760952233 -36.69619216152083 0.011532031901178779 0.014926710711916034 -0.006430995575882421 0.03882170819222676 -0.03393595673894579 -0.009422553146742662 0.04483856582985078 -0.025370148273321912 -19.731231728636175 0.017261153453010766 0.004078505430357664 -0.02322718824576965 0.026435604954457396 -0.04636668318996963 0.019208608470198795 0.005580640464934097 -0.02999597082022869 24.07222747971025 0.015532552121235709 0.025986292998206387 28.895517604767786 -0.010235966381397217 0.002645567377254529 28.820287471371454 -0.023998518015975502 0.012475684439572551 14.473344025783655 3.1866214218511795 15.021096135157679 -72.17931862949462 9.264758782202824 -30.320954729220993 -40.58176609630493 16.44901048335791 -91.55942443374147 -26.76741356177799 -9.799324367984818 7.003489569194339 -0.45897116973269403 0.06133674798126101 -8.121732168898514 -0.03661059635000875 0.02620907140206609 44.558406891351154 0.00040401269824055655 -0.010923102255894197 44.60507787662086 12.466610065708439 0.007906814264840602 0.03722789020877283 -0.035688647859463934 -0.027698607967272557 0.024457743346051598 -0.007713976939603079 -0.009630160071130336 0.02371520697833218 11.10758271452191 0.009532786461924786 0.014826411346031411 -0.016756541728236336 -0.017570960951141867 0.030560802260041663 0.007014863480826664 0.0038560604601467923 0.029569845086035447 4.805818870677585 -0.02287151027444416 -0.02640631726913215 0.04907130662830387 0.0318145405629136 0.04040865998960888 0.01541892699095545 -0.04115775382324582 -0.024730843033219443 -5.590401434086845 -0.008897871407134238 -0.03954431101661515 -6.758604564339071 -0.006575640511527048 -0.005802980994591454 -6.747894377308304 -0.026521426997940484 -0.019216950021895537 0.025367966929778846 -0.04168785168853161 -0.03418565831564504 8.00227432772248 3.456185111690834 -19.227065579899588 0.01851834671361477 10.438363273608271 0.029384499753832886 -5.659799499312824 -15.683634552764754 3.18428266325916 -0.0022343918256442943 -0.03637723477782445 0.005611244760810653 0.005201661987731926 4.735160076089233 0.017133306192844266 12.410321084647398 -8.263156425977451 6.9137493658976075 0.018355281046841268 46.38513965962685 -0.00017620964237327445 -4.344800374852807 -14.797171597581734 -3.83414631986173 -0.017059841514965434 0.01718488745767119 0.0031763437382447694 -0.0346107873357152 -10.75185358018598 -0.008531367916607625 
0.024348832988679913 0.04950941831091531 0.026796555977350135 0.028969393208554153 -0.013983581609004807 -0.008208681633893069 5.9122363683289905 1.9609218239291548 -2.463424183036872 -0.6846296385785144 3.4561237807035714 0.31225215639187426 -0.46313264062181536 -1.5373576559060897 0.2827603711865789 -0.7126877455465289 -0.5234657357356104 -0.30604518294406713 -0.36022704140241335 14.960396004940145 -0.31007535893928856 0.3941190673413768 0.8149502868194598 0.8532311569495418 0.3915174973953003 -15.039938243822958 0.09261617286096763 -12.689493888318827 4.115243237005264 -17.918689682724978 82.35280052261578 -1.444428963934905 22.165725494263697 37.41992710059963 11.82034555095131 95.7682836680377 16.314875573299222 -0.6067029126486616 -8.021553663212503 4.5492092431246745 -0.14569366657282315 -1.642841040210698 0.003952251471975904 -0.0368614435221611 -56.27338382791678 0.04054459379844494 0.011842849715369246 -56.18635653966022 -38.79445262451814 0.039968777135345676 0.013948638731917283 0.006277853047631804 0.0054095381470347665 0.012962829439617036 0.022410959075174555 -0.04408973811520884 -0.014336501169218363 -36.6565294972023 -0.026467216252484417 -0.023704521482685658 -0.04568354441089974 -0.009968739063544991 0.023885420525304235 0.000270913714371848 -0.006293859290673617 -0.02989819439500825 -19.712449057750852 0.04930897255425046 0.04477217394149716 -0.01860597582695083 -0.01036404437090527 0.0011148988537059092 0.04590130207023037 -0.03065865671695541 -0.030936989835757735 24.058211147189837 -0.039225813611536764 0.0454142761620893 28.86339749556269 0.02909239829332026 -0.035571048277747326 28.840936407446854 0.013306932724065267 0.012012088561551445 14.473069210653511 3.22482787188121 14.80326737800403 -72.30170092866273 10.488458966838966 -30.612973270571104 -41.405283756870524 16.13109363292509 -91.52102212903182 -27.554692987498694 -10.492806497116602 7.76010009143445 -0.505765860837688 0.07354296216516584 -8.117751354424936 0.04237214903984591 0.02193780037286262 44.572460192649245 0.04281553145081919 0.023191054366820042 44.53985995758242 12.507729789380262 -0.03754938547018945 0.005037940579524252 0.009606597288176425 0.04787852898967659 0.046939810600190264 0.023424342359555903 0.04632114599695691 -0.003176416069173296 11.066154955571976 0.011881901420941946 0.03835866376674792 -0.016436356977786608 0.03888720049391668 0.005072527364933823 -0.019914934992711054 0.01770558395952441 -0.029158995655406517 4.806886665366117 0.03411822861889651 0.0031300742786564695 -0.014592337304548642 0.018277990789009848 -0.03074770114408079 -0.016074151321268826 0.016016450727999877 -0.0017301826448579774 -5.571875415013025 0.02985387472896168 0.033705108513903285 -6.730970259775592 -0.034410718374258374 0.018855263049862996 -6.728894258076607 0.0006904965693142448 0.004363366831431846 0.02561452667460659 -0.0019255688060790727 0.016407797838574878 8.034330953781843 3.53439764726683 -19.2629165365389 -0.04784196172726848 10.440996073489908 0.039521952004706054 -5.614795607168178 -15.639962833671301 3.2288721504032054 -0.005131804354588477 -0.02452769157357983 0.023773765547679564 -0.0023626111834274734 4.6808994367525 0.003533143837563131 12.497514627127464 -8.20468483920101 6.90888179056147 0.022057067249770704 46.41453980549493 -0.010451301221928909 -4.359053123779559 -14.747492885384872 -3.8223488469575604 -0.019906791138335884 0.01159580240612558 -0.022812192734604407 -0.0398393670635095 -10.714704427581445 -0.03924209825635816 
